# xmcd
#
# Track frame offsets: 
#        150
#        17840
#        31089
#        43596
#        56184
#        74900
#        92008
#        105299
#        125365
#        139539
#        156994
#        174233
#        191021
#
# Disc length: 2719 seconds
#
# Revision: 0
# Processed by: cddbd v1.5.1PL0 Copyright (c) Steve Scherf et al.
# Submitted via: ExactAudioCopy v0.95a5
#
DISCID=ad0a9d0d
DTITLE=Cooder Graw - Segundo
DYEAR=2001
DGENRE=Country
TTITLE0=This Hurt
TTITLE1=Salty Boogie
TTITLE2=Willie's Guitar
TTITLE3=18 Wheels Of Lovin'
TTITLE4=Shotgun Wedding
TTITLE5=My Give A Damn Is Broken
TTITLE6=End Of The Road
TTITLE7=She Loves Too Much
TTITLE8=Dirty LIttle Hometown Girl
TTITLE9=Motel Lights
TTITLE10=Honky Tonk Nighttime Man
TTITLE11=Boogaloo
TTITLE12=Llano Estacado
EXTD=
EXTT0=
EXTT1=
EXTT2=
EXTT3=
EXTT4=
EXTT5=
EXTT6=
EXTT7=
EXTT8=
EXTT9=
EXTT10=
EXTT11=
EXTT12=
PLAYORDER=
